<svg xmlns="http://www.w3.org/2000/svg" version="1.1" xmlns:xlink="http://www.w3.org/1999/xlink" xmlns:svgjs="http://svgjs.dev/svgjs" viewBox="0 0 11.33902445719033 1.8190202532478117"><g transform="matrix(1,0,0,1,1.8818045160181702,0.3725101266239058)"><g><path d=" M 0.18 0.9967499999999998 Q 0.0615 0.9089999999999998 0.0525 0.7454999999999998 L 0.366 0.7454999999999998 Q 0.3705 0.8009999999999998 0.399 0.8264999999999998 Q 0.4275 0.8519999999999999 0.47250000000000003 0.8519999999999999 Q 0.513 0.8519999999999999 0.53925 0.8317499999999999 Q 0.5655 0.8114999999999999 0.5655 0.7754999999999999 Q 0.5655 0.7289999999999999 0.522 0.7034999999999998 Q 0.47850000000000004 0.6779999999999998 0.381 0.6464999999999999 Q 0.2775 0.6119999999999999 0.21375 0.5797499999999998 Q 0.15 0.5474999999999999 0.10275000000000001 0.48524999999999985 Q 0.0555 0.4229999999999998 0.0555 0.3224999999999998 Q 0.0555 0.2204999999999998 0.1065 0.14774999999999983 Q 0.1575 0.07499999999999984 0.2475 0.03749999999999987 Q 0.3375 -2.220446049250313e-16 0.4515 -2.220446049250313e-16 Q 0.636 -2.220446049250313e-16 0.74625 0.08624999999999983 Q 0.8565 0.17249999999999988 0.864 0.3284999999999998 L 0.5445 0.3284999999999998 Q 0.543 0.28049999999999986 0.51525 0.25649999999999984 Q 0.4875 0.23249999999999982 0.444 0.23249999999999982 Q 0.41100000000000003 0.23249999999999982 0.39 0.2519999999999998 Q 0.369 0.27149999999999985 0.369 0.3074999999999998 Q 0.369 0.3374999999999998 0.39225 0.35924999999999985 Q 0.41550000000000004 0.3809999999999998 0.45 0.3967499999999998 Q 0.4845 0.41249999999999987 0.552 0.4364999999999998 Q 0.6525 0.47099999999999986 0.71775 0.5047499999999998 Q 0.783 0.5384999999999999 0.83025 0.5992499999999998 Q 0.8775000000000001 0.6599999999999998 0.8775000000000001 0.7529999999999999 Q 0.8775000000000001 0.8474999999999998 0.83025 0.9224999999999999 Q 0.783 0.9974999999999998 0.69375 1.041 Q 0.6045 1.0844999999999998 0.483 1.0844999999999998 Q 0.2985 1.0844999999999998 0.18 0.9967499999999998 M 1.30649267578125 0.016499999999999737 L 1.30649267578125 1.0739999999999998 L 1.01249267578125 1.0739999999999998 L 1.01249267578125 0.016499999999999737 L 1.30649267578125 0.016499999999999737 M 2.7074677734375 0.016499999999999737 L 2.7074677734375 1.0739999999999998 L 2.4134677734374996 1.0739999999999998 L 2.4134677734374996 0.4904999999999998 L 2.2139677734375 1.0739999999999998 L 1.9679677734374998 1.0739999999999998 L 1.7669677734375 0.4859999999999999 L 1.7669677734375 1.0739999999999998 L 1.4729677734375 1.0739999999999998 L 1.4729677734375 0.016499999999999737 L 1.8284677734374999 0.016499999999999737 L 2.0939677734375 0.7034999999999998 L 2.3534677734375 0.016499999999999737 L 2.7074677734375 0.016499999999999737 M 3.6652141113281247 0.5437499999999998 Q 3.620964111328125 0.6224999999999998 3.531714111328125 0.6697499999999998 Q 3.4424641113281247 0.7169999999999999 3.3134641113281247 0.7169999999999999 L 3.167964111328125 0.7169999999999999 L 3.167964111328125 1.0739999999999998 L 2.873964111328125 1.0739999999999998 L 2.873964111328125 0.016499999999999737 L 3.3134641113281247 0.016499999999999737 Q 3.4409641113281246 0.016499999999999737 3.530214111328125 0.06149999999999989 Q 3.6194641113281247 0.10649999999999982 3.664464111328125 0.18599999999999983 Q 3.709464111328125 0.26549999999999985 3.709464111328125 0.3689999999999999 Q 3.709464111328125 0.46499999999999986 3.6652141113281247 0.5437499999999998 M 3.4094641113281248 0.3689999999999999 Q 3.4094641113281248 0.25349999999999984 3.284964111328125 0.25349999999999984 L 3.167964111328125 0.25349999999999984 L 3.167964111328125 0.4829999999999999 L 3.284964111328125 0.4829999999999999 Q 3.4094641113281248 0.4829999999999999 3.4094641113281248 0.3689999999999999 M 4.120443603515625 0.8489999999999999 L 4.448943603515625 0.8489999999999999 L 4.448943603515625 1.0739999999999998 L 3.826443603515625 1.0739999999999998 L 3.826443603515625 0.016499999999999737 L 4.120443603515625 0.016499999999999737 L 4.120443603515625 0.8489999999999999 M 4.8554853515625 0.2519999999999998 L 4.8554853515625 0.4244999999999999 L 5.1929853515625 0.4244999999999999 L 5.1929853515625 0.6479999999999999 L 4.8554853515625 0.6479999999999999 L 4.8554853515625 0.8384999999999998 L 5.2379853515625 0.8384999999999998 L 5.2379853515625 1.0739999999999998 L 4.561485351562499 1.0739999999999998 L 4.561485351562499 0.016499999999999737 L 5.2379853515625 0.016499999999999737 L 5.2379853515625 0.2519999999999998 L 4.8554853515625 0.2519999999999998 M 5.6961643066406245 0.2647499999999998 Q 5.761414306640624 0.14249999999999985 5.881414306640624 0.07424999999999982 Q 6.0014143066406245 0.005999999999999783 6.157414306640625 0.005999999999999783 Q 6.355414306640625 0.005999999999999783 6.490414306640624 0.1117499999999998 Q 6.625414306640625 0.2174999999999998 6.664414306640625 0.3989999999999998 L 6.347914306640624 0.3989999999999998 Q 6.319414306640625 0.33899999999999986 6.269164306640625 0.3074999999999998 Q 6.218914306640625 0.2759999999999998 6.152914306640625 0.2759999999999998 Q 6.050914306640625 0.2759999999999998 5.990164306640625 0.3487499999999998 Q 5.929414306640624 0.4214999999999999 5.929414306640624 0.5429999999999998 Q 5.929414306640624 0.6659999999999998 5.990164306640625 0.7387499999999998 Q 6.050914306640625 0.8114999999999999 6.152914306640625 0.8114999999999999 Q 6.218914306640625 0.8114999999999999 6.269164306640625 0.7799999999999998 Q 6.319414306640625 0.7484999999999998 6.347914306640624 0.6884999999999999 L 6.664414306640625 0.6884999999999999 Q 6.625414306640625 0.8699999999999999 6.490414306640624 0.9757499999999999 Q 6.355414306640625 1.0815 6.157414306640625 1.0815 Q 6.0014143066406245 1.0815 5.881414306640624 1.0132499999999998 Q 5.761414306640624 0.9449999999999998 5.6961643066406245 0.8227499999999999 Q 5.630914306640625 0.7004999999999999 5.630914306640625 0.5429999999999998 Q 5.630914306640625 0.3869999999999998 5.6961643066406245 0.2647499999999998 M 7.33790771484375 1.0739999999999998 L 7.12790771484375 0.6839999999999998 L 7.09640771484375 0.6839999999999998 L 7.09640771484375 1.0739999999999998 L 6.802407714843749 1.0739999999999998 L 6.802407714843749 0.016499999999999737 L 7.26590771484375 0.016499999999999737 Q 7.393407714843749 0.016499999999999737 7.48190771484375 0.06074999999999986 Q 7.57040771484375 0.10499999999999987 7.61540771484375 0.1822499999999998 Q 7.66040771484375 0.25949999999999984 7.66040771484375 0.3554999999999998 Q 7.66040771484375 0.4634999999999998 7.601157714843749 0.5452499999999998 Q 7.54190771484375 0.6269999999999998 7.42790771484375 0.6614999999999998 L 7.66640771484375 1.0739999999999998 L 7.33790771484375 1.0739999999999998 M 7.09640771484375 0.4829999999999999 L 7.24190771484375 0.4829999999999999 Q 7.3019077148437495 0.4829999999999999 7.33190771484375 0.4544999999999998 Q 7.361907714843749 0.4259999999999998 7.361907714843749 0.3719999999999998 Q 7.361907714843749 0.32099999999999984 7.33115771484375 0.29174999999999984 Q 7.300407714843749 0.26249999999999984 7.24190771484375 0.26249999999999984 L 7.09640771484375 0.26249999999999984 L 7.09640771484375 0.4829999999999999 M 9.026923828125 0.016499999999999737 L 9.026923828125 1.0739999999999998 L 8.732923828125 1.0739999999999998 L 8.732923828125 0.4904999999999998 L 8.533423828124999 1.0739999999999998 L 8.287423828125 1.0739999999999998 L 8.086423828125 0.4859999999999999 L 8.086423828125 1.0739999999999998 L 7.792423828124999 1.0739999999999998 L 7.792423828124999 0.016499999999999737 L 8.147923828125 0.016499999999999737 L 8.413423828125 0.7034999999999998 L 8.672923828124999 0.016499999999999737 L 9.026923828125 0.016499999999999737" fill="#d50457" fill-rule="nonzero"></path></g><g></g><g clip-path="url(#SvgjsClipPath1105)"><g clip-path="url(#SvgjsClipPath110305f15ce9-7280-4779-8014-7dd5ae79699a)"><path d=" M -0.9378749696892664 1.0056273485725606 C -0.7323530246356964 1.0070920088285344 -0.5462525927406163 0.8844149339411203 -0.46658748807761574 0.6949554759367728 C -0.38692238341461493 0.5054960179324252 -0.4294341319728956 0.28669065536334826 -0.5742457815749418 0.1408448420267902 C -0.7190574311769882 -0.005000971309767902 -0.9375547428107166 -0.049068649525223655 -1.1275762961265217 0.029246255848636396 C -1.3175978494423266 0.10756116122249645 -1.4415960979619513 0.2927839185136376 -1.4415939567734148 0.4983110824693623 C -1.4425790395233193 0.7774973637592056 -1.2170611921563037 1.0046257333450712 -0.9378749696892688 1.0056273485725606 Z M -0.9378749696892664 1.022823432368169 C -0.6496676547279059 1.0207459938621644 -0.41712524259587047 0.7865213425476931 -0.41712524259587114 0.498306540450398 C -0.4171252425958716 0.21009173835310282 -0.6496676547279076 -0.024132912961367624 -0.937874969689268 -0.026210351467371384 C -1.225502862568482 -0.026210351467371384 -1.458662864038047 0.2086211129807418 -1.458662864038047 0.4983110824693623 C -1.4596881547069307 0.786961466634532 -1.2265253311604511 1.0217917724355785 -0.9378749696892721 1.022823432368169 Z" fill="#d50457" transform="matrix(1,0,0,1,0,0)" fill-rule="evenodd"></path></g><g clip-path="url(#SvgjsClipPath110305f15ce9-7280-4779-8014-7dd5ae79699a)"><path d=" M -1.014707762474928 1.022823432368169 C -0.8091858174213582 1.0242880926241433 -0.6230853855262782 0.901611017736729 -0.5434202808632775 0.7121515597323813 C -0.46375517620027673 0.5226921017280338 -0.5062669247585572 0.30388673915895686 -0.6510785743606035 0.15804092582239881 C -0.7958902239626499 0.012195112485840716 -1.0143875355963783 -0.031872565729615034 -1.2044090889121832 0.046442339644245004 C -1.3944306422279884 0.12475724501810506 -1.5184288907476131 0.3099800023092462 -1.5184267495590764 0.5155071662649708 C -1.5194168562502268 0.7946955076885679 -1.2938960807736493 1.0218268262949244 -1.014707762474941 1.022823432368169 Z M -1.014707762474928 1.0400195161637775 C -0.8022201035743348 1.0415320138200554 -0.6098132026690712 0.9146957137830047 -0.5274492223438754 0.7188144549060874 C -0.44508524201867994 0.5229331960291702 -0.48903892237868973 0.29671220561080347 -0.6387591910863715 0.14592383081912821 C -0.7884794597940529 -0.004864543972547063 -1.014382286887907 -0.05042522037293642 -1.2108440862920071 0.030544244298124537 C -1.4073058856961074 0.11151370896918555 -1.535506717999253 0.30301412442522974 -1.5355047408616356 0.515507166264971 C -1.5365250020816845 0.8041590251287755 -1.3033595808059237 1.0389878511472097 -1.0147077624749363 1.0400195161637775 Z" fill="#d50457" transform="matrix(1,0,0,1,0,0)" fill-rule="evenodd"></path></g><g clip-path="url(#SvgjsClipPath110305f15ce9-7280-4779-8014-7dd5ae79699a)"><path d=" M -0.9207969783867074 1.083014267671763 C -0.7152758601966074 1.0844789220404545 -0.5291760092831739 0.9618028276624982 -0.44951037704425834 0.77234448850979 C -0.3698447448053428 0.5828861493570817 -0.4123548287513792 0.3640815072565716 -0.557164590023875 0.2182349842444285 C -0.7019743512963706 0.07238846123228547 -0.9204701652683189 0.028318540440807755 -1.1104920057577603 0.10663057892490127 C -1.3005138462472015 0.18494261740899473 -1.4245144266146226 0.37016258045394834 -1.424515965470856 0.5756889175306372 C -1.425511101680774 0.8548808012120316 -1.1999888568434787 1.0820176667270678 -0.9207969783867272 1.083014267671763 Z M -0.9207969783867074 1.1002103514673713 C -0.7083101463499935 1.101722843240366 -0.5159038264212263 0.9748875237135085 -0.4335393185172347 0.7790073836837051 C -0.3511748106132424 0.5831272436539019 -0.39512682636298146 0.35690697369661933 -0.5448452067473752 0.20611788922617072 C -0.6945635871317692 0.05532880475572212 -0.9204649165714931 0.00976588578232497 -1.1169270031507053 0.09073248356995756 C -1.3133890897299174 0.17169908135759007 -1.44159225387466 0.3631967025733305 -1.4415939567734148 0.5756889175306372 C -1.4426192474104855 0.8643443186581511 -1.2094523568203945 1.0991786915029036 -0.9207969783867083 1.1002103514673713 Z" fill="#d50457" transform="matrix(1,0,0,1,0,0)" fill-rule="evenodd"></path></g></g></g><defs><clipPath id="SvgjsClipPath1105"><path d=" M -1.5355047408616356 -0.026210351467371384 h 1.1355047408616357 v 1.1264207029347426 h -1.1355047408616357 Z"></path></clipPath><clipPath id="SvgjsClipPath110305f15ce9-7280-4779-8014-7dd5ae79699a"><path d=" M -1.5355047408616356 -0.026210351467371384 L -0.3999999999999999 -0.026210351467371384 L -0.3999999999999999 1.1002103514673713 L -1.5355047408616356 1.1002103514673713 Z"></path></clipPath></defs></svg>